# xmcd
#
# Track frame offsets: 
#        150
#        16593
#        37434
#        56894
#        78316
#        96730
#        113560
#        128486
#        143516
#        162315
#        185370
#
# Disc length: 2710 seconds
#
# Revision: 0
# Processed by: cddbd v1.5.2PL0 Copyright (c) Steve Scherf et al.
# Submitted via: ExactAudioCopy v0.99pb3
#
DISCID=8e0a940b
DTITLE=B. J. Allen and Blue Voodoo - Heartless
DYEAR=2008
DGENRE=Blues
TTITLE0=Don't Know What You're Missin'
TTITLE1=Radio Song
TTITLE2=Borderline
TTITLE3=Heartless
TTITLE4=Take Out Some Insurance
TTITLE5=Do Something
TTITLE6=Sunday Kind Of Love
TTITLE7=It's All About You
TTITLE8=Tryin' To Find The Groove
TTITLE9=Iron City
TTITLE10=Get It While you Can
EXTD=
EXTT0=
EXTT1=
EXTT2=
EXTT3=
EXTT4=
EXTT5=
EXTT6=
EXTT7=
EXTT8=
EXTT9=
EXTT10=
PLAYORDER=
